<svg xmlns="http://www.w3.org/2000/svg" width="400" height="400"><defs><linearGradient id="a" x1=".5" x2=".5" y2="1"><stop offset="0" stop-color="#c0f"/><stop offset="1" stop-color="#50f"/></linearGradient></defs><path d="M293.41 72.59a100 100 0 0 0-186.82 0l-15.82 54.8a100 100 0 0 0 16.59 95.88 100 100 0 0 0 95.88 16.59l54.8-15.82a100 100 0 0 0 51.16-151.45zM200 325a125 125 0 1 1 0-250 125 125 0 0 1 0 250z" fill="url(#a)"/><path d="M293.41 72.59a100 100 0 0 0-186.82 0l-15.82 54.8a100 100 0 0 0 16.59 95.88 100 100 0 0 0 95.88 16.59l54.8-15.82a100 100 0 0 0 51.16-151.45z" fill-opacity=".5"/><path d="m153.43 191.2-21.54-74.63a25 25 0 0 1 48.14-13.9l74.63 21.54a25 25 0 0 1 13.9 48.14l-21.54 74.63a25 25 0 0 1-48.14 13.9l-74.63-21.54a25 25 0 0 1-13.9-48.14z" fill="#fff"/></svg>